<svg xmlns="http://www.w3.org/2000/svg" viewBox="0 0 64 64" fill="none">
  <rect width="64" height="64" rx="18" fill="#fffaf4" />
  <rect x="1.5" y="1.5" width="61" height="61" rx="16.5" stroke="#e2d1c2" stroke-width="3" />
  <circle cx="47" cy="17" r="7" fill="#c88b18" opacity="0.18" />
  <path
    d="M14 16.5C14 14.567 15.567 13 17.5 13H19.5C21.433 13 23 14.567 23 16.5V27H31V16.5C31 14.567 32.567 13 34.5 13H36.5C38.433 13 40 14.567 40 16.5V47.5C40 49.433 38.433 51 36.5 51H34.5C32.567 51 31 49.433 31 47.5V36H23V47.5C23 49.433 21.433 51 19.5 51H17.5C15.567 51 14 49.433 14 47.5V16.5Z"
    fill="#d9654f"
  />
  <path
    d="M36 17.5C36 15.015 38.015 13 40.5 13H51.5C53.985 13 56 15.015 56 17.5V18.5C56 20.985 53.985 23 51.5 23H49V47.5C49 49.433 47.433 51 45.5 51H43.5C41.567 51 40 49.433 40 47.5V23H40.5C38.015 23 36 20.985 36 18.5V17.5Z"
    fill="#2f241f"
  />
</svg>
